<?xml version="1.0" encoding="UTF-8"?>
<svg id="Layer_1" data-name="Layer 1" xmlns="http://www.w3.org/2000/svg" xmlns:xlink="http://www.w3.org/1999/xlink" viewBox="0 0 1018 456.3391">
  <a xlink:href="93.14">
    <path id="fullLogo" d="M834.5567,115.4167c19.0193,0,36.9503,4.7306,52.6884,13.0711,17.1102,9.0661,38.0566,6.338,51.7492-7.3545l.7579-.7579c-27.2018-26.4834-64.3227-42.8249-105.1955-42.8249-77.2034,0-141.0395,58.2847-149.8469,133.1605h23.0872c8.3549,0,15.8171-5.4472,18.125-13.4752,13.5775-47.1927,57.1334-81.8191,108.6348-81.8191" style="fill: #0a0a54;"/>
  </a>
  <a xlink:href="93.14">
    <path id="fullLogo-2" data-name="fullLogo" d="M940.815,335.1079c-13.9278-13.9278-35.2729-16.6002-52.5879-7.2144-15.9752,8.6584-34.2582,13.5793-53.6708,13.5793-50.7506,0-93.7677-33.6314-108.0008-79.7717-2.421-7.8538-9.797-13.125-18.0153-13.125h-23.5327c9.8725,73.7192,73.1697,130.7629,149.5488,130.7629,41.4995,0,79.1377-16.8408,106.4437-44.0462l-.185-.185Z" style="fill: #0a0a54;"/>
  </a>
  <a xlink:href="93.14">
    <path id="fullLogo-3" data-name="fullLogo" d="M440.3418,379.253c20.9141,0,37.8663-16.954,37.8663-37.8663V119.9009c0-2.5557,2.0708-4.6264,4.6264-4.6264h132.0794c20.9123,0,37.8662-16.9522,37.8662-37.8663h-202.9717c-5.2281,0-9.4666,4.2385-9.4666,9.4666V379.253Z" style="fill: #0a0a54;"/>
  </a>
  <a xlink:href="93.14">
    <path id="fullLogo-4" data-name="fullLogo" d="M207.0979,77l106.0437,263.5558c13.7446,36.9252,56.1331,38.0243,56.1331,38.0243L251.4332,85.9368c-2.1534-5.3969-7.3779-8.9368-13.1878-8.9368h-31.1475Z" style="fill: #0a0a54;"/>
  </a>
  <a xlink:href="93.14">
    <path id="fullLogo-5" data-name="fullLogo" d="M154.2183,210.7119l-77.2183,168.0662s41.0811-.8118,58.8235-38.0243l42.7519-92.1487h55.8188l-15.1257-37.8932h-65.0501Z" style="fill: #0a0a54;"/>
  </a>
  <a xlink:href="93.14">
    <path id="fullLogo-6" data-name="fullLogo" d="M533.079,248.5764h33.2632c20.9015,0,37.8465-16.945,37.8465-37.8465,0-.0108-.009-.0198-.0198-.0198h-71.0899c-.0108,0-.0198,.009-.0198,.0198v37.8268c0,.0108,.009,.0197,.0198,.0197" style="fill: #0a0a54;"/>
  </a>
</svg>